<svg width="33" height="31" viewBox="0 0 33 31" fill="none" xmlns="http://www.w3.org/2000/svg">
<rect y="0.975586" width="32.7739" height="29.6327" rx="14.8163" fill="#D6DFFF"/>
<path d="M4.64143 22.6945H5.21753C5.71001 22.6945 6.03523 22.4037 6.03523 21.9418V20.7102C6.14673 20.7358 6.47195 20.7529 6.70425 20.7529H24.8887C25.121 20.7529 25.4462 20.7358 25.5577 20.7102V21.9418C25.5577 22.4037 25.8829 22.6945 26.3754 22.6945H26.9515C27.444 22.6945 27.7692 22.4037 27.7692 21.9418V15.9461C27.7692 14.398 26.9236 13.5 25.3626 13.3546V10.3439C25.3626 8.71882 24.4148 7.87207 22.6865 7.87207H8.90645C7.17814 7.87207 6.23036 8.71882 6.23036 10.3439V13.3546C4.6693 13.5 3.82373 14.398 3.82373 15.9461V21.9418C3.82373 22.4037 4.14895 22.6945 4.64143 22.6945ZM8.72991 11.7637C8.72991 10.9426 9.22238 10.4893 10.133 10.4893H13.4781C14.3794 10.4893 14.8719 10.9426 14.8719 11.7637V13.3375H8.72991V11.7637ZM16.721 11.7637C16.721 10.9426 17.2135 10.4893 18.1148 10.4893H21.4599C22.3706 10.4893 22.863 10.9426 22.863 11.7637V13.3375H16.721V11.7637ZM5.94231 19.2904C5.72859 19.2904 5.60779 19.1621 5.60779 18.9482V15.8435C5.60779 15.2106 6.0631 14.8 6.75071 14.8H24.8422C25.5298 14.8 25.9852 15.2106 25.9852 15.8435V18.9482C25.9852 19.1621 25.8644 19.2904 25.6506 19.2904H5.94231Z" fill="#1C1C1E"/>
</svg>
