<svg width="31" height="31" viewBox="0 0 31 31" fill="none" xmlns="http://www.w3.org/2000/svg">
<rect width="31" height="29.6327" rx="14.8163" fill="#D6DFFF"/>
<path d="M14.9912 25.1314C19.9746 25.1314 24.0879 21.1286 24.0879 16.2876C24.0879 11.4466 19.9658 7.44385 14.9824 7.44385C10.0078 7.44385 5.90332 11.4466 5.90332 16.2876C5.90332 21.1286 10.0166 25.1314 14.9912 25.1314ZM14.9912 23.3694C10.957 23.3694 7.73145 20.2134 7.73145 16.2876C7.73145 12.3618 10.957 9.21431 14.9824 9.21431C19.0166 9.21431 22.2598 12.3618 22.2686 16.2876C22.2773 20.2134 19.0254 23.3694 14.9912 23.3694ZM14.9824 21.0944C15.2109 21.0944 15.3867 20.9319 15.3867 20.7009V20.1279C16.8105 19.9996 17.8828 19.2042 17.8828 17.9041C17.8828 16.7409 17.1094 16.0567 15.5801 15.783L15.3867 15.7402V13.6191C15.9492 13.7132 16.3359 14.0382 16.5029 14.5428C16.6348 14.825 16.8193 14.9876 17.1357 14.9876C17.4873 14.9876 17.7334 14.7566 17.7334 14.4316C17.7334 14.329 17.707 14.2349 17.6895 14.1323C17.4521 13.2513 16.5645 12.6184 15.3867 12.4986V11.9256C15.3867 11.6947 15.2109 11.5322 14.9824 11.5322C14.7539 11.5322 14.5869 11.6947 14.5869 11.9256V12.4986C13.1982 12.6355 12.2139 13.4566 12.2139 14.6454C12.2139 15.7573 12.9785 16.4073 14.4375 16.7324L14.5869 16.7666V19.0245C13.875 18.9219 13.4619 18.5541 13.3213 18.0495C13.1982 17.7416 12.9961 17.5876 12.6973 17.5876C12.3281 17.5876 12.0908 17.8271 12.0908 18.1692C12.0908 18.2633 12.1172 18.3574 12.1436 18.4686C12.3984 19.3752 13.3301 20.0081 14.5869 20.1193V20.7009C14.5869 20.9404 14.7539 21.0944 14.9824 21.0944ZM14.5869 15.5435L14.5254 15.5264C13.8223 15.3297 13.4971 15.0303 13.4971 14.5685C13.4971 14.098 13.9102 13.7132 14.5869 13.6105V15.5435ZM15.3867 16.9633L15.5537 16.9975C16.3184 17.2028 16.5908 17.5107 16.5908 17.9982C16.5908 18.537 16.1865 18.9305 15.3867 19.0245V16.9633Z" fill="#1C1C1E"/>
</svg>
