<svg width="205" height="237" viewBox="0 0 205 237" fill="none" xmlns="http://www.w3.org/2000/svg">
<path d="M38.7307 138.514H50.6995V148.23C50.6995 162.001 57.9709 169.208 71.9345 169.208H166.205C180.169 169.208 187.44 162.001 187.44 148.23V88.7722C187.44 75.0016 180.169 67.7945 166.205 67.7945H158.355C156.681 67.7945 155.33 67.7302 154.236 67.5371V51.9005C154.236 38.1299 146.965 30.9229 133.066 30.9229H38.7307C24.7671 30.9229 17.5601 38.1299 17.5601 51.9005V117.536C17.5601 131.371 24.7671 138.514 38.7307 138.514ZM39.5672 125.708C33.6472 125.708 30.3654 122.619 30.3654 116.378V53.0587C30.3654 46.8169 33.6472 43.7926 39.5672 43.7926H132.229C138.085 43.7926 141.431 46.8169 141.431 53.0587V57.177C138.793 55.3753 135.961 54.4744 132.1 54.4744H106.039C100.827 54.4744 97.4165 56.0831 93.9417 59.5579L89.0512 64.3841C86.1555 67.2154 84.6112 67.7945 79.785 67.7945H71.9345C57.9709 67.7945 50.6995 75.0016 50.6995 88.7722V125.708H39.5672ZM72.7711 156.338C66.7867 156.338 63.5692 153.249 63.5692 147.072V89.9304C63.5692 83.6886 66.7867 80.6642 72.7711 80.6642H83.2599C88.6008 80.6642 92.0113 79.5703 95.1643 76.3529L101.277 70.3685C103.658 68.1163 105.524 67.3441 109.192 67.3441H128.947C132.615 67.3441 134.481 68.1163 136.927 70.3685L142.975 76.3529C146.128 79.5703 149.539 80.6642 154.944 80.6642H165.369C171.353 80.6642 174.57 83.6886 174.57 89.9304V147.072C174.57 153.249 171.353 156.338 165.369 156.338H72.7711ZM119.102 148.101C135.897 148.101 149.539 134.46 149.539 117.6C149.539 100.805 135.897 87.2278 119.102 87.2278C102.307 87.2278 88.6651 100.805 88.6651 117.6C88.6651 134.46 102.307 148.101 119.102 148.101ZM157.711 103.508C161.765 103.508 165.047 100.291 165.047 96.2366C165.047 92.1826 161.765 88.9008 157.711 88.9008C153.657 88.9008 150.44 92.1826 150.44 96.2366C150.44 100.291 153.657 103.508 157.711 103.508ZM119.102 136.969C108.42 136.969 99.7974 128.282 99.7974 117.6C99.7974 106.983 108.42 98.2957 119.102 98.2957C129.784 98.2957 138.407 106.983 138.407 117.6C138.407 128.282 129.784 136.969 119.102 136.969Z" fill="#1C1C1E"/>
<rect x="89.4399" y="210.539" width="27" height="2.07692" fill="#434141"/>
<rect x="103.978" y="198.077" width="27" height="2.07692" transform="rotate(90 103.978 198.077)" fill="#434141"/>
<circle cx="102.94" cy="211.577" r="22.5" stroke="#1C1C1E" stroke-width="4"/>
</svg>
