<svg width="31" height="28" viewBox="0 0 31 28" fill="none" xmlns="http://www.w3.org/2000/svg">
<rect y="0.769043" width="30.9173" height="26.5336" rx="13.2668" fill="#D6DFFF"/>
<path fill-rule="evenodd" clip-rule="evenodd" d="M12.094 17.1281C12.094 17.448 12.3965 17.7074 12.7696 17.7074H18.1745C18.5476 17.7074 18.8501 17.448 18.8501 17.1281C18.8501 16.8081 18.5476 16.5488 18.1745 16.5488H12.7696C12.3965 16.5488 12.094 16.8081 12.094 17.1281Z" fill="#030D45"/>
<path fill-rule="evenodd" clip-rule="evenodd" d="M12.094 14.0384C12.094 14.3583 12.3965 14.6177 12.7696 14.6177H15.472C15.8452 14.6177 16.1477 14.3583 16.1477 14.0384C16.1477 13.7185 15.8452 13.4591 15.472 13.4591H12.7696C12.3965 13.4591 12.094 13.7185 12.094 14.0384Z" fill="#030D45"/>
<path fill-rule="evenodd" clip-rule="evenodd" d="M12.8264 7.16017C13.1066 6.76672 13.5981 6.50732 14.1525 6.50732H16.7916C17.346 6.50732 17.8375 6.76672 18.1177 7.16017L18.6119 7.85407C19.1001 7.88684 19.5632 7.92209 19.9673 7.95491C21.1441 8.05046 22.061 8.85519 22.1534 9.86256C22.2775 11.2164 22.4534 13.4188 22.4534 15.0509C22.4534 16.5911 22.297 18.3399 22.1748 19.4728C22.0679 20.4649 21.157 21.2436 20.0031 21.3376C18.7493 21.4399 16.8856 21.5695 15.472 21.5695C14.0585 21.5695 12.1948 21.4399 10.941 21.3376C9.78705 21.2436 8.87619 20.4649 8.76924 19.4728C8.64711 18.3399 8.49072 16.5911 8.49072 15.0509C8.49072 13.4188 8.66655 11.2164 8.79068 9.86256C8.88304 8.85519 9.79993 8.05046 10.9768 7.95491C11.3809 7.92209 11.8439 7.88684 12.3322 7.85407L12.8264 7.16017ZM12.0027 9.03944C11.6832 9.06246 11.38 9.08597 11.1041 9.10837C10.5846 9.15056 10.1789 9.50415 10.1377 9.95337C10.0137 11.3065 9.84195 13.4688 9.84195 15.0509C9.84195 16.5369 9.99368 18.2433 10.1147 19.3662C10.1616 19.8014 10.5587 20.1426 11.0689 20.1842C12.3197 20.2862 14.128 20.4108 15.472 20.4108C16.8161 20.4108 18.6243 20.2862 19.8752 20.1842C20.3854 20.1426 20.7824 19.8014 20.8294 19.3662C20.9504 18.2433 21.1021 16.5369 21.1021 15.0509C21.1021 13.4688 20.9304 11.3065 20.8063 9.95337C20.7651 9.50415 20.3595 9.15056 19.8399 9.10837C19.5641 9.08597 19.2609 9.06246 18.9414 9.03944C18.9062 9.20368 18.8395 9.3604 18.7464 9.50175C18.4918 9.88798 18.0108 10.1955 17.3921 10.1955H13.552C12.9333 10.1955 12.4523 9.88798 12.1977 9.50175C12.1046 9.3604 12.0379 9.20368 12.0027 9.03944ZM14.1525 7.66595C14.1045 7.66595 14.0335 7.68835 13.9796 7.76405L13.379 8.60725C13.3702 8.61966 13.3627 8.63201 13.3563 8.64424C13.3079 8.73752 13.3179 8.84649 13.3741 8.93175C13.4277 9.0131 13.4946 9.03691 13.552 9.03691H17.3921C17.4495 9.03691 17.5163 9.0131 17.57 8.93175C17.6261 8.84649 17.6362 8.73752 17.5878 8.64424C17.5814 8.63201 17.5739 8.61966 17.565 8.60725L16.9645 7.76405C16.9106 7.68835 16.8396 7.66595 16.7916 7.66595H14.1525Z" fill="#030D45"/>
</svg>
