<svg width="104" height="33" viewBox="0 0 104 33" fill="none" xmlns="http://www.w3.org/2000/svg">
<path d="M1.536 24V7.08H13.488V10.488H5.76V13.704H12.936V17.112H5.76V20.592H13.488V24H1.536ZM19.3296 24L14.1456 12.192H18.6336L21.2016 18.888L23.9136 12.192H28.1136L22.8336 24H19.3296ZM34.9847 24.264C33.5447 24.264 32.2967 24.016 31.2407 23.52C30.2007 23.008 29.4007 22.288 28.8407 21.36C28.2807 20.432 28.0007 19.336 28.0007 18.072C28.0007 16.872 28.2647 15.808 28.7927 14.88C29.3367 13.952 30.0727 13.232 31.0007 12.72C31.9447 12.192 33.0167 11.928 34.2167 11.928C35.4007 11.928 36.4247 12.176 37.2887 12.672C38.1687 13.168 38.8407 13.88 39.3047 14.808C39.7847 15.72 40.0247 16.792 40.0247 18.024V18.96H32.0807C32.2247 19.728 32.5447 20.28 33.0407 20.616C33.5367 20.952 34.2247 21.12 35.1047 21.12C35.7127 21.12 36.3447 21.032 37.0007 20.856C37.6727 20.664 38.2647 20.392 38.7767 20.04L39.8327 22.848C39.2247 23.28 38.4807 23.624 37.6007 23.88C36.7207 24.136 35.8487 24.264 34.9847 24.264ZM34.4087 14.688C33.7687 14.688 33.2407 14.88 32.8247 15.264C32.4247 15.648 32.1687 16.208 32.0567 16.944H36.5207C36.4727 16.192 36.2647 15.632 35.8967 15.264C35.5447 14.88 35.0487 14.688 34.4087 14.688ZM41.8652 24V12.192H46.0172V13.8C46.4332 13.192 46.9692 12.728 47.6252 12.408C48.2812 12.088 49.0172 11.928 49.8332 11.928C51.2412 11.928 52.2812 12.344 52.9532 13.176C53.6412 14.008 53.9852 15.288 53.9852 17.016V24H49.7132V17.184C49.7132 16.464 49.5852 15.952 49.3292 15.648C49.0892 15.344 48.7292 15.192 48.2492 15.192C47.6092 15.192 47.0972 15.4 46.7132 15.816C46.3292 16.216 46.1372 16.76 46.1372 17.448V24H41.8652ZM62.6119 24.264C60.8199 24.264 59.4919 23.848 58.6279 23.016C57.7639 22.184 57.3319 20.928 57.3319 19.248V15.336H55.1239V12.192H57.3319V8.76H61.6039V12.192H64.9639V15.336H61.6039V19.104C61.6039 20.256 62.1879 20.832 63.3559 20.832C63.5479 20.832 63.7559 20.816 63.9799 20.784C64.2199 20.736 64.4839 20.672 64.7719 20.592L65.3479 23.664C64.9799 23.856 64.5479 24 64.0519 24.096C63.5559 24.208 63.0759 24.264 62.6119 24.264Z" fill="#434141"/>
<path d="M66.4226 24V19.632H70.8626V24H66.4226ZM73.0577 10.152V6.288H77.5457V10.152H73.0577ZM73.1777 24V12.192H77.4497V24H73.1777ZM79.9277 24V12.192H84.0797V13.8C84.4957 13.192 85.0317 12.728 85.6877 12.408C86.3437 12.088 87.0797 11.928 87.8957 11.928C89.3037 11.928 90.3437 12.344 91.0157 13.176C91.7037 14.008 92.0477 15.288 92.0477 17.016V24H87.7757V17.184C87.7757 16.464 87.6477 15.952 87.3917 15.648C87.1517 15.344 86.7917 15.192 86.3117 15.192C85.6717 15.192 85.1597 15.4 84.7757 15.816C84.3917 16.216 84.1997 16.76 84.1997 17.448V24H79.9277ZM100.674 24.264C98.8824 24.264 97.5544 23.848 96.6904 23.016C95.8264 22.184 95.3944 20.928 95.3944 19.248V15.336H93.1864V12.192H95.3944V8.76H99.6664V12.192H103.026V15.336H99.6664V19.104C99.6664 20.256 100.25 20.832 101.418 20.832C101.61 20.832 101.818 20.816 102.042 20.784C102.282 20.736 102.546 20.672 102.834 20.592L103.41 23.664C103.042 23.856 102.61 24 102.114 24.096C101.618 24.208 101.138 24.264 100.674 24.264Z" fill="#6FA6AE"/>
</svg>
