<svg width="48" height="39" viewBox="0 0 48 39" fill="none" xmlns="http://www.w3.org/2000/svg">
<path d="M34.0197 13.1654H11.9803C11.4999 13.1654 11.1323 13.0181 10.8904 12.7974C10.653 12.5807 10.5 12.2606 10.5 11.8327C10.5 11.4186 10.6516 11.0968 10.8921 10.8752C11.1359 10.6506 11.5041 10.5 11.9803 10.5H34.0197C34.4959 10.5 34.8641 10.6506 35.1079 10.8752C35.3484 11.0968 35.5 11.4186 35.5 11.8327C35.5 12.2606 35.347 12.5807 35.1096 12.7974C34.8678 13.0181 34.5001 13.1654 34.0197 13.1654ZM34.0197 20.8211H11.9803C11.4999 20.8211 11.1323 20.6738 10.8904 20.4531C10.653 20.2364 10.5 19.9163 10.5 19.4884C10.5 19.0743 10.6516 18.7524 10.8921 18.5309C11.1359 18.3063 11.5041 18.1557 11.9803 18.1557H34.0197C34.4959 18.1557 34.8641 18.3063 35.1079 18.5309C35.3484 18.7524 35.5 19.0743 35.5 19.4884C35.5 19.9163 35.347 20.2364 35.1096 20.4531C34.8678 20.6738 34.5001 20.8211 34.0197 20.8211ZM34.0197 28.5H11.9803C11.5041 28.5 11.1359 28.3494 10.8921 28.1248C10.6516 27.9032 10.5 27.5814 10.5 27.1673C10.5 26.7386 10.6537 26.411 10.8937 26.188C11.137 25.9619 11.5041 25.8114 11.9803 25.8114H34.0197C34.4959 25.8114 34.863 25.9619 35.1063 26.188C35.3463 26.411 35.5 26.7386 35.5 27.1673C35.5 27.5814 35.3484 27.9032 35.1079 28.1248C34.8641 28.3494 34.4959 28.5 34.0197 28.5Z" stroke="#434141"/>
</svg>
