<svg width="48" height="48" viewBox="0 0 48 48" fill="none" xmlns="http://www.w3.org/2000/svg">
<path d="M23.6778 40.3492L23.6749 40.3463L8.37354 25.545C8.37278 25.5443 8.37201 25.5435 8.37124 25.5428C6.29511 23.5062 5 20.7549 5 17.8557C5 15.1894 6.26696 12.6383 8.35808 10.5817C10.6616 8.51749 13.4646 7.27009 16.3878 7.44921L16.4184 7.45109H16.449C18.8422 7.45109 21.0793 8.35236 22.9747 9.83899L23.5886 10.3205L24.205 9.84211C28.7045 6.34984 35.0826 6.71202 39.2183 10.7666L39.2645 10.812L39.3163 10.8509C41.7125 12.6581 43 15.3605 43 18.2559C43 21.1359 41.7208 23.6899 39.6312 25.7405L24.4348 40.2416C24.3658 40.2784 24.3049 40.3127 24.2539 40.3416L24.2517 40.3428C24.1605 40.3944 24.1137 40.4209 24.0701 40.4423C24.0332 40.4603 24.0201 40.4637 24.019 40.464L24.0164 40.4645C24.0149 40.4647 24.0098 40.4652 24 40.4652C23.9535 40.4652 23.8815 40.4522 23.8006 40.4183C23.7627 40.4023 23.7305 40.3849 23.7064 40.3695C23.688 40.3577 23.679 40.3501 23.6778 40.3492Z" fill="#FF3C47" stroke="black" stroke-width="2"/>
</svg>
