<svg width="20" height="20" viewBox="0 0 20 20" fill="none" xmlns="http://www.w3.org/2000/svg">
<rect width="20" height="20" rx="10" fill="#D6DFFF"/>
<path d="M7.63958 15.2465H14.582C14.8648 15.2465 15.0836 15.0406 15.0836 14.7744C15.0836 14.5484 14.9182 14.3827 14.7154 14.2923C14.059 14.016 13.931 13.1622 14.598 12.5646C14.8702 12.3386 15.0783 12.0875 15.0783 11.5802V6.02051C15.0783 4.93569 14.4859 4.36816 13.3387 4.36816H7.65025C6.5083 4.36816 5.91064 4.93066 5.91064 6.02051V13.6092C5.91064 14.684 6.5083 15.2465 7.63958 15.2465ZM13.2426 5.36761C13.7602 5.36761 14.0164 5.62374 14.0164 6.0858V11.4245C14.0164 11.6706 13.8669 11.8062 13.6001 11.8062H8.35997V5.36761H13.2426ZM6.97255 11.982V6.0858C6.97255 5.66895 7.18066 5.42285 7.60223 5.37765V11.8112C7.3621 11.8313 7.15398 11.8916 6.97255 11.982ZM7.78366 14.3023C7.21268 14.3023 6.91385 13.996 6.91385 13.5239C6.91385 13.0668 7.25537 12.7504 7.82101 12.7504H13.1466C13.2053 12.7504 13.264 12.7454 13.3173 12.7354C13.0505 13.2677 13.0825 13.8453 13.3707 14.3023H7.78366Z" fill="#5D5FEF"/>
</svg>
