<svg width="43" height="36" viewBox="0 0 43 36" fill="none" xmlns="http://www.w3.org/2000/svg">
<rect width="43" height="36" rx="15" fill="#D6DFFF"/>
<path d="M14.0578 27.8344H27.1907C29.8394 27.8344 31.2069 26.6419 31.2069 24.3624V14.7802C31.2069 13.3028 30.9852 12.6274 29.9133 11.6882L23.4701 6.08445C22.4229 5.17688 21.5605 4.96582 20.0082 4.96582H14.0578C11.4213 4.96582 10.0415 6.15832 10.0415 8.44835V24.3624C10.0415 26.6419 11.4213 27.8344 14.0578 27.8344ZM14.2672 25.7238C13.0845 25.7238 12.4931 25.1961 12.4931 24.2253V8.57498C12.4931 7.61465 13.0845 7.07644 14.2795 7.07644H19.5031V12.8173C19.5031 14.3475 20.3778 15.0863 22.1519 15.0863H28.7553V24.2253C28.7553 25.1961 28.1639 25.7238 26.9689 25.7238H14.2672ZM22.3859 13.2395C21.8685 13.2395 21.6468 13.0495 21.6468 12.6168V7.35082L28.4226 13.2395H22.3859Z" fill="#1C1C1E"/>
</svg>
