<svg width="19" height="22" viewBox="0 0 19 22" fill="none" xmlns="http://www.w3.org/2000/svg">
<path d="M11.1006 21.7578C11.7861 21.7578 12.2607 21.1296 12.5859 20.1725L18.3867 2.96303C18.5361 2.51435 18.624 2.12549 18.624 1.78648C18.624 1.07856 18.2285 0.629883 17.5957 0.629883C17.3057 0.629883 16.9541 0.719619 16.5674 0.889121L1.32715 7.50967C0.571289 7.8387 0 8.37712 0 9.15483C0 10.112 0.624023 10.471 1.48535 10.7601L7.83105 12.8739L9.67676 19.993C9.94043 21.01 10.2568 21.7578 11.1006 21.7578ZM8.34082 11.0393L2.88281 9.14486C2.75098 9.10498 2.71582 9.05513 2.71582 8.9953C2.71582 8.92551 2.75098 8.86568 2.86523 8.8258L13.2979 4.2991C14.0449 3.97007 14.7744 3.57124 15.5742 3.15247C14.9414 3.73077 14.168 4.43869 13.6406 5.03693L8.34082 11.0393ZM11.2588 18.6868C11.1973 18.6868 11.1533 18.627 11.1182 18.4874L9.44824 12.2956L14.7393 6.28327C15.249 5.695 15.8994 4.78767 16.4092 4.0598C16.04 4.97711 15.6797 5.81465 15.3896 6.67213L11.3994 18.5074C11.3555 18.637 11.3203 18.6868 11.2588 18.6868Z" fill="#1C1C1E"/>
</svg>
