<svg width="59" height="66" viewBox="0 0 59 66" fill="none" xmlns="http://www.w3.org/2000/svg">
<path d="M14.8 61.15C13.97 61.15 13.2 61.045 12.49 60.835C11.78 60.615 11.18 60.32 10.69 59.95L11.275 58.435C11.765 58.785 12.3 59.055 12.88 59.245C13.47 59.435 14.11 59.53 14.8 59.53C15.59 59.53 16.165 59.4 16.525 59.14C16.885 58.87 17.065 58.525 17.065 58.105C17.065 57.755 16.935 57.48 16.675 57.28C16.425 57.08 15.99 56.915 15.37 56.785L13.72 56.44C11.84 56.04 10.9 55.075 10.9 53.545C10.9 52.885 11.075 52.31 11.425 51.82C11.775 51.33 12.26 50.95 12.88 50.68C13.5 50.41 14.215 50.275 15.025 50.275C15.745 50.275 16.42 50.385 17.05 50.605C17.68 50.815 18.205 51.115 18.625 51.505L18.04 52.945C17.21 52.245 16.2 51.895 15.01 51.895C14.32 51.895 13.78 52.04 13.39 52.33C13 52.62 12.805 53 12.805 53.47C12.805 53.83 12.925 54.12 13.165 54.34C13.405 54.55 13.815 54.715 14.395 54.835L16.03 55.18C17.02 55.39 17.755 55.72 18.235 56.17C18.725 56.62 18.97 57.22 18.97 57.97C18.97 58.6 18.8 59.155 18.46 59.635C18.12 60.115 17.635 60.49 17.005 60.76C16.385 61.02 15.65 61.15 14.8 61.15ZM20.4379 61V50.425H22.3129V54.73C22.5629 54.33 22.8979 54.03 23.3179 53.83C23.7379 53.62 24.2029 53.515 24.7129 53.515C26.4429 53.515 27.3079 54.52 27.3079 56.53V61H25.4329V56.62C25.4329 56.05 25.3229 55.635 25.1029 55.375C24.8929 55.115 24.5629 54.985 24.1129 54.985C23.5629 54.985 23.1229 55.16 22.7929 55.51C22.4729 55.85 22.3129 56.305 22.3129 56.875V61H20.4379ZM31.6273 61.15C31.0973 61.15 30.6223 61.05 30.2023 60.85C29.7923 60.64 29.4673 60.36 29.2273 60.01C28.9973 59.66 28.8823 59.265 28.8823 58.825C28.8823 58.285 29.0223 57.86 29.3023 57.55C29.5823 57.23 30.0373 57 30.6673 56.86C31.2973 56.72 32.1423 56.65 33.2023 56.65H33.7273V56.335C33.7273 55.835 33.6173 55.475 33.3973 55.255C33.1773 55.035 32.8073 54.925 32.2873 54.925C31.8773 54.925 31.4573 54.99 31.0273 55.12C30.5973 55.24 30.1623 55.43 29.7223 55.69L29.1823 54.415C29.4423 54.235 29.7473 54.08 30.0973 53.95C30.4573 53.81 30.8323 53.705 31.2223 53.635C31.6223 53.555 31.9973 53.515 32.3473 53.515C33.4173 53.515 34.2123 53.765 34.7323 54.265C35.2523 54.755 35.5123 55.52 35.5123 56.56V61H33.7573V59.83C33.5873 60.24 33.3173 60.565 32.9473 60.805C32.5773 61.035 32.1373 61.15 31.6273 61.15ZM32.0173 59.86C32.5073 59.86 32.9123 59.69 33.2323 59.35C33.5623 59.01 33.7273 58.58 33.7273 58.06V57.73H33.2173C32.2773 57.73 31.6223 57.805 31.2523 57.955C30.8923 58.095 30.7123 58.355 30.7123 58.735C30.7123 59.065 30.8273 59.335 31.0573 59.545C31.2873 59.755 31.6073 59.86 32.0173 59.86ZM37.4154 61V53.665H39.2454V54.955C39.6054 54.085 40.3754 53.605 41.5554 53.515L42.1254 53.47L42.2454 55.06L41.1654 55.165C39.9354 55.285 39.3204 55.915 39.3204 57.055V61H37.4154ZM46.7873 61.15C45.9573 61.15 45.2423 60.995 44.6423 60.685C44.0423 60.375 43.5773 59.935 43.2473 59.365C42.9273 58.795 42.7673 58.12 42.7673 57.34C42.7673 56.58 42.9223 55.915 43.2323 55.345C43.5523 54.775 43.9873 54.33 44.5373 54.01C45.0973 53.68 45.7323 53.515 46.4423 53.515C47.4823 53.515 48.3023 53.845 48.9023 54.505C49.5123 55.165 49.8173 56.065 49.8173 57.205V57.76H44.5673C44.7073 59.07 45.4573 59.725 46.8173 59.725C47.2273 59.725 47.6373 59.665 48.0473 59.545C48.4573 59.415 48.8323 59.215 49.1723 58.945L49.6973 60.205C49.3473 60.495 48.9073 60.725 48.3773 60.895C47.8473 61.065 47.3173 61.15 46.7873 61.15ZM46.5173 54.79C45.9673 54.79 45.5223 54.96 45.1823 55.3C44.8423 55.64 44.6373 56.1 44.5673 56.68H48.2573C48.2173 56.07 48.0473 55.605 47.7473 55.285C47.4573 54.955 47.0473 54.79 46.5173 54.79Z" fill="#434141"/>
<path d="M31.9631 45.5049C32.9817 45.5049 33.778 45.1265 34.7596 44.2253L49.4273 30.8347C50.1496 30.1679 50.4274 29.3929 50.4274 28.7261C50.4274 28.0412 50.1496 27.2843 49.4273 26.6175L34.7596 13.317C33.6854 12.3438 32.9817 11.9473 32.0001 11.9473C30.5186 11.9473 29.4629 13.0647 29.4629 14.4704V20.8864H28.9999C16.2213 20.8864 10.2949 28.8703 10.2949 41.9545C10.2949 44.2434 11.295 45.4328 12.5914 45.4328C13.5729 45.4328 14.4804 45.1265 15.2027 43.8108C18.1103 38.5483 22.2402 36.6199 28.9999 36.6199H29.4629V43.0719C29.4629 44.4777 30.5186 45.5049 31.9631 45.5049ZM33.1484 40.8552C32.9817 40.8552 32.8706 40.747 32.8706 40.5668V33.9165C32.8706 33.502 32.6854 33.3218 32.2594 33.3218H29.8889C21.4068 33.3218 15.999 35.935 13.7766 40.4406C13.7211 40.5488 13.6655 40.6028 13.5914 40.6028C13.5174 40.6028 13.4618 40.5488 13.4618 40.4226C13.7581 31.8259 17.9621 24.1664 29.8889 24.1664H32.2594C32.6854 24.1664 32.8706 23.9862 32.8706 23.5717V16.7592C32.8706 16.597 32.9817 16.4889 33.1484 16.4889C33.2595 16.4889 33.3706 16.543 33.4632 16.6331L46.1122 28.3837C46.2419 28.5279 46.2974 28.618 46.2974 28.7261C46.2974 28.8342 46.2604 28.9243 46.1122 29.0685L33.4447 40.711C33.3521 40.8011 33.241 40.8552 33.1484 40.8552Z" fill="#434141"/>
</svg>
