<svg width="33" height="30" viewBox="0 0 33 30" fill="none" xmlns="http://www.w3.org/2000/svg">
<rect width="32.1471" height="30" rx="15" fill="#D6DFFF"/>
<path d="M26.9355 14.7839C26.9264 13.7746 25.459 12.9792 23.6635 12.9792H19.9175C19.4071 12.9792 19.2157 12.8937 18.9058 12.5772L12.7263 6.30791C12.5258 6.10264 12.2889 6 12.0245 6H10.8488C10.6118 6 10.4751 6.20527 10.5845 6.4362L13.7836 12.9707L9.10797 13.4582L7.44006 10.6699C7.31246 10.4561 7.12106 10.362 6.82029 10.362H6.41014C6.16406 10.362 6 10.516 6 10.7469V18.8209C6 19.0518 6.16406 19.2057 6.41014 19.2057H6.82029C7.12106 19.2057 7.31246 19.1117 7.44006 18.8978L9.10797 16.101L13.7836 16.5971L10.5845 23.1315C10.4751 23.3625 10.6118 23.5677 10.8488 23.5677H12.0245C12.2889 23.5677 12.5258 23.4566 12.7263 23.2598L18.9058 16.9905C19.2157 16.6741 19.4071 16.5885 19.9175 16.5885H23.6635C25.459 16.5885 26.9264 15.7846 26.9355 14.7839Z" fill="#1C1C1E"/>
</svg>
